<?xml version="1.0" encoding="UTF-8" standalone="no"?>
<svg
   xmlns:dc="http://purl.org/dc/elements/1.1/"
   xmlns:cc="http://creativecommons.org/ns#"
   xmlns:rdf="http://www.w3.org/1999/02/22-rdf-syntax-ns#"
   xmlns:svg="http://www.w3.org/2000/svg"
   xmlns="http://www.w3.org/2000/svg"
   xmlns:sodipodi="http://sodipodi.sourceforge.net/DTD/sodipodi-0.dtd"
   xmlns:inkscape="http://www.inkscape.org/namespaces/inkscape"
   style="shape-rendering:crispEdges"
   version="1.1"
   id="svg2"
   viewBox="0 0 354.33071 354.33071"
   height="100mm"
   width="100mm"
   inkscape:version="0.91 r13725"
   sodipodi:docname="logo.svg">
  <sodipodi:namedview
     pagecolor="#ffffff"
     bordercolor="#666666"
     borderopacity="1"
     objecttolerance="10"
     gridtolerance="10"
     guidetolerance="10"
     inkscape:pageopacity="0"
     inkscape:pageshadow="2"
     inkscape:window-width="2554"
     inkscape:window-height="1394"
     id="namedview6058"
     showgrid="false"
     inkscape:zoom="1.8838582"
     inkscape:cx="124.21872"
     inkscape:cy="221.82701"
     inkscape:window-x="0"
     inkscape:window-y="20"
     inkscape:window-maximized="0"
     inkscape:current-layer="layer1" />
  <defs
     id="defs4" />
  <metadata
     id="metadata7">
    <rdf:RDF>
      <cc:Work
         rdf:about="">
        <dc:format>image/svg+xml</dc:format>
        <dc:type
           rdf:resource="http://purl.org/dc/dcmitype/StillImage" />
        <dc:title />
      </cc:Work>
    </rdf:RDF>
  </metadata>
  <g
     transform="matrix(0.9318573,0,0,0.9318573,12.616429,-638.92179)"
     id="layer1">
    <rect
       ry="64.261162"
       y="699.00568"
       x="1.9349229"
       height="352.51837"
       width="350.8447"
       id="rect4226"
       style="opacity:1;fill:none;fill-opacity:1;fill-rule:nonzero;stroke:#6d8fc9;stroke-width:23.07099915;stroke-miterlimit:4;stroke-dasharray:none;stroke-opacity:1" />
    <g
       style="fill:#ffffff;fill-opacity:1"
       transform="matrix(1.245537,0,0,1.1622874,301.50633,70.310006)"
       id="g4221">
      <path
         id="path4196-5"
         d="m -88.464631,570.2892 c -36.684259,-0.42136 -75.071299,15.12826 -96.174939,46.0994 -22.45156,32.99203 -25.70255,75.67023 -17.25923,113.82863 8.1378,34.15219 32.87003,65.09992 66.72756,76.34566 42.789849,15.69009 93.151925,9.10782 130.3412079,-17.28735 0,-20.39059 0,-40.78118 0,-61.17177 -21.5106169,30.74932 -61.2378079,49.11969 -98.5143079,41.20696 -20.35809,-3.79716 -38.88154,-18.33625 -44.79028,-38.62214 -8.67169,-24.56028 -7.50976,-51.92693 -0.0885,-76.75669 6.72327,-18.41156 22.79611,-33.87372 42.55071,-37.34567 32.045189,-7.90766 67.584002,3.96551 90.179855,27.97052 3.583299,3.50084 7.1089649,7.06001 10.6624559,10.59097 0,-19.84716 0,-39.69432 0,-59.54148 C -28.90315,578.17219 -58.908825,569.91003 -88.464671,570.2892 Z"
         style="font-style:normal;font-variant:normal;font-weight:normal;font-stretch:normal;font-size:388.02078247px;line-height:125%;font-family:'GFS Olga';-inkscape-font-specification:'GFS Olga, Normal';text-align:start;letter-spacing:0px;word-spacing:0px;writing-mode:lr-tb;text-anchor:start;fill:#ffffff;fill-opacity:1;fill-rule:nonzero;stroke:none;stroke-width:1px;stroke-linecap:butt;stroke-linejoin:miter;stroke-opacity:1;shape-rendering:crispEdges"
         inkscape:connector-curvature="0" />
    </g>
  </g>
</svg>
